<svg id="SvgjsSvg1259" width="1004.5" height="786" xmlns="http://www.w3.org/2000/svg" version="1.1" xmlns:xlink="http://www.w3.org/1999/xlink" xmlns:svgjs="http://svgjs.com/svgjs"><defs id="SvgjsDefs1260"><marker id="SvgjsMarker1396" markerWidth="16" markerHeight="12" refX="16" refY="6" viewBox="0 0 16 12" orient="auto" markerUnits="userSpaceOnUse"><path id="SvgjsPath1397" d="M0,2 L14,6 L0,11 L0,2" fill="#007fff" stroke="#007fff" stroke-width="3"></path></marker><marker id="SvgjsMarker1436" markerWidth="16" markerHeight="12" refX="0" refY="6" viewBox="0 0 16 12" orient="auto" markerUnits="userSpaceOnUse"><path id="SvgjsPath1437" d="M15,1.5 L2,6 L15,10.5" fill="#00cc00" stroke="#00cc00" stroke-width="3"></path></marker><marker id="SvgjsMarker1438" markerWidth="16" markerHeight="12" refX="16" refY="6" viewBox="0 0 16 12" orient="auto" markerUnits="userSpaceOnUse"><path id="SvgjsPath1439" d="M0,2 L14,6 L0,11 L0,2" fill="#00cc00" stroke="#00cc00" stroke-width="3"></path></marker><marker id="SvgjsMarker1442" markerWidth="16" markerHeight="12" refX="0" refY="6" viewBox="0 0 16 12" orient="auto" markerUnits="userSpaceOnUse"><path id="SvgjsPath1443" d="M15,1.5 L2,6 L15,10.5" fill="#00cc00" stroke="#00cc00" stroke-width="3"></path></marker><marker id="SvgjsMarker1444" markerWidth="16" markerHeight="12" refX="16" refY="6" viewBox="0 0 16 12" orient="auto" markerUnits="userSpaceOnUse"><path id="SvgjsPath1445" d="M0,2 L14,6 L0,11 L0,2" fill="#00cc00" stroke="#00cc00" stroke-width="3"></path></marker></defs><g id="SvgjsG1261" transform="translate(25,25)"><path id="SvgjsPath1262" d="M 0 4Q 0 0 4 0L 932 0Q 936 0 936 4L 936 415Q 936 419 932 419L 4 419Q 0 419 0 415Z" stroke="#323232" stroke-width="2" fill-opacity="1" fill="#ffffff"></path><g id="SvgjsG1263"><text id="SvgjsText1264" font-family="微软雅黑" text-anchor="start" font-size="24px" width="55" fill="#000000" font-weight="400" align="middle" anchor="start" family="微软雅黑" size="24px" weight="400" font-style="" y="12.328571428571427" transform="rotate(0)"><tspan id="SvgjsTspan1265" dy="30" x="5"><tspan id="SvgjsTspan1266" style="text-decoration:;">前端 </tspan></tspan></text></g></g><g id="SvgjsG1267" transform="translate(41,117)"><path id="SvgjsPath1268" d="M 0 4Q 0 0 4 0L 234 0Q 238 0 238 4L 238 272Q 238 276 234 276L 4 276Q 0 276 0 272Z" stroke="#323232" stroke-width="2" fill-opacity="1" fill="#ffffff"></path><g id="SvgjsG1269"><text id="SvgjsText1270" font-family="微软雅黑" text-anchor="middle" font-size="20px" width="57" fill="#323232" font-weight="400" align="middle" anchor="middle" family="微软雅黑" size="20px" weight="400" font-style="" y="5.214285714285712" transform="rotate(0)"><tspan id="SvgjsTspan1271" dy="25" x="119"><tspan id="SvgjsTspan1272" style="text-decoration:;">Editor</tspan></tspan></text></g></g><g id="SvgjsG1273" transform="translate(302,117)"><path id="SvgjsPath1274" d="M 0 4Q 0 0 4 0L 236 0Q 240 0 240 4L 240 272Q 240 276 236 276L 4 276Q 0 276 0 272Z" stroke="#323232" stroke-width="2" fill-opacity="1" fill="#ffffff"></path><g id="SvgjsG1275"><text id="SvgjsText1276" font-family="微软雅黑" text-anchor="middle" font-size="20px" width="92" fill="#323232" font-weight="400" align="middle" anchor="middle" family="微软雅黑" size="20px" weight="400" font-style="" y="5.214285714285712" transform="rotate(0)"><tspan id="SvgjsTspan1277" dy="25" x="120"><tspan id="SvgjsTspan1278" style="text-decoration:;">Simulator</tspan></tspan></text></g></g><g id="SvgjsG1279" transform="translate(555,119.5)"><path id="SvgjsPath1280" d="M 0 4Q 0 0 4 0L 159 0Q 163 0 163 4L 163 239.5Q 163 243.5 159 243.5L 4 243.5Q 0 243.5 0 239.5Z" stroke="#323232" stroke-width="2" fill-opacity="1" fill="#ffffff"></path><g id="SvgjsG1281"><text id="SvgjsText1282" font-family="微软雅黑" text-anchor="middle" font-size="20px" width="87" fill="#323232" font-weight="400" align="middle" anchor="middle" family="微软雅黑" size="20px" weight="400" font-style="" y="2.8928571428571423" transform="rotate(0)"><tspan id="SvgjsTspan1283" dy="25" x="81.5"><tspan id="SvgjsTspan1284" style="text-decoration:;">Mapping</tspan></tspan></text></g></g><g id="SvgjsG1285" transform="translate(792,128)"><path id="SvgjsPath1286" d="M 0 4Q 0 0 4 0L 151 0Q 155 0 155 4L 155 260Q 155 264 151 264L 4 264Q 0 264 0 260Z" stroke="#323232" stroke-width="2" fill-opacity="1" fill="#ffffff"></path><g id="SvgjsG1287"><text id="SvgjsText1288" font-family="微软雅黑" text-anchor="middle" font-size="20px" width="80" fill="#323232" font-weight="400" align="middle" anchor="middle" family="微软雅黑" size="20px" weight="400" font-style="" y="4.357142857142858" transform="rotate(0)"><tspan id="SvgjsTspan1289" dy="25" x="77.5"><tspan id="SvgjsTspan1290" style="text-decoration:;">其他工作</tspan></tspan></text></g></g><g id="SvgjsG1291" transform="translate(30,493)"><path id="SvgjsPath1292" d="M 0 4Q 0 0 4 0L 880 0Q 884 0 884 4L 884 264Q 884 268 880 268L 4 268Q 0 268 0 264Z" stroke="#323232" stroke-width="2" fill-opacity="1" fill="#ffffff"></path><g id="SvgjsG1293"><text id="SvgjsText1294" font-family="微软雅黑" text-anchor="start" font-size="26px" width="52" fill="#323232" font-weight="400" align="middle" anchor="start" family="微软雅黑" size="26px" weight="400" font-style="" y="-0.25714285714285756" transform="rotate(0)"><tspan id="SvgjsTspan1295" dy="32" x="5"><tspan id="SvgjsTspan1296" style="text-decoration:;">后端</tspan></tspan></text></g></g><g id="SvgjsG1297" transform="translate(95,45)"><path id="SvgjsPath1298" d="M 0 0L 219 0L 219 41L 0 41Z" stroke="none" fill="none"></path><g id="SvgjsG1299"><text id="SvgjsText1300" font-family="微软雅黑" text-anchor="middle" font-size="16px" width="200" fill="#ff0000" font-weight="400" align="middle" anchor="middle" family="微软雅黑" size="16px" weight="400" font-style="" y="8.1" transform="rotate(0)"><tspan id="SvgjsTspan1301" dy="20" x="109.5"><tspan id="SvgjsTspan1302" style="text-decoration:;">基本框架：Vue+ElementUI</tspan></tspan></text></g></g><g id="SvgjsG1303" transform="translate(52,156)"><path id="SvgjsPath1304" d="M 0 0L 216 0L 216 56L 0 56Z" stroke="#323232" stroke-width="2" fill-opacity="1" fill="#ffffff"></path><g id="SvgjsG1305"><text id="SvgjsText1306" font-family="微软雅黑" text-anchor="start" font-size="13px" width="195" fill="#323232" font-weight="400" align="middle" anchor="start" family="微软雅黑" size="13px" weight="400" font-style="" y="2.05" transform="rotate(0)"><tspan id="SvgjsTspan1307" dy="16" x="10"><tspan id="SvgjsTspan1308" style="text-decoration:;font-weight: bold;">基本IO操作：</tspan></tspan><tspan id="SvgjsTspan1309" dy="16" x="10"><tspan id="SvgjsTspan1310" style="text-decoration:;">本地导入BPMN文件</tspan></tspan><tspan id="SvgjsTspan1311" dy="16" x="10"><tspan id="SvgjsTspan1312" style="text-decoration:;">导出并下载BPMN文件与SVG图像</tspan></tspan></text></g></g><g id="SvgjsG1313" transform="translate(52,221)"><path id="SvgjsPath1314" d="M 0 0L 216 0L 216 36L 0 36Z" stroke="#323232" stroke-width="2" fill-opacity="1" fill="#ffffff"></path><g id="SvgjsG1315"><text id="SvgjsText1316" font-family="微软雅黑" text-anchor="start" font-size="13px" width="117" fill="#323232" font-weight="400" align="middle" anchor="start" family="微软雅黑" size="13px" weight="400" font-style="" y="8.05" transform="rotate(0)"><tspan id="SvgjsTspan1317" dy="16" x="10"><tspan id="SvgjsTspan1318" style="text-decoration:;">流程图查看编辑功能</tspan></tspan></text></g></g><g id="SvgjsG1319" transform="translate(52,271)"><path id="SvgjsPath1320" d="M 0 0L 216 0L 216 36L 0 36Z" stroke="#323232" stroke-width="2" fill-opacity="1" fill="#ffffff"></path><g id="SvgjsG1321"><text id="SvgjsText1322" font-family="微软雅黑" text-anchor="start" font-size="13px" width="65" fill="#323232" font-weight="400" align="middle" anchor="start" family="微软雅黑" size="13px" weight="400" font-style="" y="8.05" transform="rotate(0)"><tspan id="SvgjsTspan1323" dy="16" x="10"><tspan id="SvgjsTspan1324" style="text-decoration:;">形式化验证</tspan></tspan></text></g></g><g id="SvgjsG1325" transform="translate(52,322)"><path id="SvgjsPath1326" d="M 0 0L 216 0L 216 36L 0 36Z" stroke="#323232" stroke-width="2" fill-opacity="1" fill="#ffffff"></path><g id="SvgjsG1327"><text id="SvgjsText1328" font-family="微软雅黑" text-anchor="start" font-size="13px" width="104" fill="#323232" font-weight="400" align="middle" anchor="start" family="微软雅黑" size="13px" weight="400" font-style="" y="8.05" transform="rotate(0)"><tspan id="SvgjsTspan1329" dy="16" x="10"><tspan id="SvgjsTspan1330" style="text-decoration:;">自然语言处理接口</tspan></tspan></text></g></g><g id="SvgjsG1331" transform="translate(314,207)"><path id="SvgjsPath1332" d="M 0 0L 216 0L 216 36L 0 36Z" stroke="#323232" stroke-width="2" fill-opacity="1" fill="#ffffff"></path><g id="SvgjsG1333"><text id="SvgjsText1334" font-family="微软雅黑" text-anchor="middle" font-size="13px" width="91" fill="#323232" font-weight="400" align="middle" anchor="middle" family="微软雅黑" size="13px" weight="400" font-style="" y="8.05" transform="rotate(0)"><tspan id="SvgjsTspan1335" dy="16" x="108"><tspan id="SvgjsTspan1336" style="text-decoration:;">流程图查看功能</tspan></tspan></text></g></g><g id="SvgjsG1337" transform="translate(314,163)"><path id="SvgjsPath1338" d="M 0 0L 216 0L 216 37L 0 37Z" stroke="#323232" stroke-width="2" fill-opacity="1" fill="#ffffff"></path><g id="SvgjsG1339"><text id="SvgjsText1340" font-family="微软雅黑" text-anchor="middle" font-size="13px" width="52" fill="#323232" font-weight="400" align="middle" anchor="middle" family="微软雅黑" size="13px" weight="400" font-style="" y="8.55" transform="rotate(0)"><tspan id="SvgjsTspan1341" dy="16" x="108"><tspan id="SvgjsTspan1342" style="text-decoration:;">导入操作</tspan></tspan></text></g></g><g id="SvgjsG1343" transform="translate(314,316)"><path id="SvgjsPath1344" d="M 0 0L 216 0L 216 33L 0 33Z" stroke="#323232" stroke-width="2" fill-opacity="1" fill="#ffffff"></path><g id="SvgjsG1345"><text id="SvgjsText1346" font-family="微软雅黑" text-anchor="middle" font-size="13px" width="52" fill="#323232" font-weight="400" align="middle" anchor="middle" family="微软雅黑" size="13px" weight="400" font-style="" y="6.55" transform="rotate(0)"><tspan id="SvgjsTspan1347" dy="16" x="108"><tspan id="SvgjsTspan1348" style="text-decoration:;">仿真模拟</tspan></tspan></text></g></g><g id="SvgjsG1349" transform="translate(809,175)"><path id="SvgjsPath1350" d="M 0 0L 127 0L 127 42L 0 42Z" stroke="#323232" stroke-width="2" fill-opacity="1" fill="#ffffff"></path><g id="SvgjsG1351"><text id="SvgjsText1352" font-family="微软雅黑" text-anchor="middle" font-size="16px" width="64" fill="#323232" font-weight="400" align="middle" anchor="middle" family="微软雅黑" size="16px" weight="400" font-style="" y="8.6" transform="rotate(0)"><tspan id="SvgjsTspan1353" dy="20" x="63.5"><tspan id="SvgjsTspan1354" style="text-decoration:;">页面排版</tspan></tspan></text></g></g><g id="SvgjsG1355" transform="translate(809,249)"><path id="SvgjsPath1356" d="M 0 0L 127 0L 127 41L 0 41Z" stroke="#323232" stroke-width="2" fill-opacity="1" fill="#ffffff"></path><g id="SvgjsG1357"><text id="SvgjsText1358" font-family="微软雅黑" text-anchor="middle" font-size="16px" width="84" fill="#323232" font-weight="400" align="middle" anchor="middle" family="微软雅黑" size="16px" weight="400" font-style="" y="8.1" transform="rotate(0)"><tspan id="SvgjsTspan1359" dy="20" x="63.5"><tspan id="SvgjsTspan1360" style="text-decoration:;">Vue-router</tspan></tspan></text></g></g><g id="SvgjsG1361" transform="translate(755,120)"><path id="SvgjsPath1362" d="M 0 280Q 3.4000000000000004 280 3.4000000000000004 271L 3.4000000000000004 149Q 3.4000000000000004 140 22 140Q 3.4000000000000004 140 3.4000000000000004 131L 3.4000000000000004 9Q 3.4000000000000004 0 0 0" stroke="#323232" stroke-width="2" fill="none"></path><path id="SvgjsPath1363" d="M 0 0L 34 0L 34 280L 0 280Z" stroke="none" fill="none"></path><g id="SvgjsG1364"><text id="SvgjsText1365" font-family="微软雅黑" text-anchor="start" font-size="13px" width="0" fill="#323232" font-weight="400" align="middle" anchor="start" family="微软雅黑" size="13px" weight="400" font-style="" y="130.05" transform="rotate(0)"></text></g></g><g id="SvgjsG1366" transform="translate(806,322)"><path id="SvgjsPath1367" d="M 0 0L 127 0L 127 31L 0 31Z" stroke="#323232" stroke-width="2" fill-opacity="1" fill="#ffffff"></path><g id="SvgjsG1368"><text id="SvgjsText1369" font-family="微软雅黑" text-anchor="middle" font-size="16px" width="40" fill="#323232" font-weight="400" align="middle" anchor="middle" family="微软雅黑" size="16px" weight="400" font-style="" y="3.1" transform="rotate(0)"><tspan id="SvgjsTspan1370" dy="20" x="63.5"><tspan id="SvgjsTspan1371" style="text-decoration:;">VueX</tspan></tspan></text></g></g><g id="SvgjsG1372" transform="translate(37,547)"><path id="SvgjsPath1373" d="M 0 0L 833 0L 833 31L 0 31Z" stroke="#323232" stroke-width="2" fill-opacity="1" fill="#ffffff"></path><g id="SvgjsG1374"><text id="SvgjsText1375" font-family="微软雅黑" text-anchor="start" font-size="20px" width="57" fill="#323232" font-weight="400" align="middle" anchor="start" family="微软雅黑" size="20px" weight="400" font-style="" y="0" transform="rotate(0)"><tspan id="SvgjsTspan1376" dy="25" x="10"><tspan id="SvgjsTspan1377" style="text-decoration:;">Nginx</tspan></tspan></text></g></g><g id="SvgjsG1378" transform="translate(107,646.75)"><path id="SvgjsPath1379" d="M 0 0L 184 0L 184 75L 0 75Z" stroke="#323232" stroke-width="2" fill-opacity="1" fill="#ffffff"></path><g id="SvgjsG1380"><text id="SvgjsText1381" font-family="微软雅黑" text-anchor="middle" font-size="13px" width="0" fill="#323232" font-weight="400" align="middle" anchor="middle" family="微软雅黑" size="13px" weight="400" font-style="" y="27.55" transform="rotate(0)"></text></g></g><g id="SvgjsG1382" transform="translate(107,685.5)"><path id="SvgjsPath1383" d="M 0 0L 184 0L 184 37.5L 0 37.5Z" stroke="#323232" stroke-width="2" fill-opacity="1" fill="#ffffff"></path><g id="SvgjsG1384"><text id="SvgjsText1385" font-family="微软雅黑" text-anchor="middle" font-size="13px" width="99" fill="#323232" font-weight="400" align="middle" anchor="middle" family="微软雅黑" size="13px" weight="400" font-style="" y="8.8" transform="rotate(0)"><tspan id="SvgjsTspan1386" dy="16" x="92"><tspan id="SvgjsTspan1387" style="text-decoration:;">HTML、CSS、JS</tspan></tspan></text></g></g><g id="SvgjsG1388" transform="translate(119,645.5)"><path id="SvgjsPath1389" d="M 0 0L 160 0L 160 40L 0 40Z" stroke="none" fill="none"></path><g id="SvgjsG1390"><text id="SvgjsText1391" font-family="微软雅黑" text-anchor="middle" font-size="20px" width="80" fill="#323232" font-weight="400" align="middle" anchor="middle" family="微软雅黑" size="20px" weight="400" font-style="" y="4.5" transform="rotate(0)"><tspan id="SvgjsTspan1392" dy="25" x="80"><tspan id="SvgjsTspan1393" style="text-decoration:;">静态文件</tspan></tspan></text></g></g><g id="SvgjsG1394"><path id="SvgjsPath1395" d="M199 645.5L199 544.75L199 544.75L199 444" stroke="#007fff" stroke-width="3" fill="none" marker-end="url(#SvgjsMarker1396)"></path></g><g id="SvgjsG1398" transform="translate(376,621.5)"><path id="SvgjsPath1399" d="M 0 0L 406 0L 406 24L 0 24Z" stroke="#323232" stroke-width="2" fill-opacity="1" fill="#ffffff"></path><g id="SvgjsG1400"><text id="SvgjsText1401" font-family="微软雅黑" text-anchor="middle" font-size="16px" width="48" fill="#323232" font-weight="400" align="middle" anchor="middle" family="微软雅黑" size="16px" weight="400" font-style="" y="-0.3999999999999999" transform="rotate(0)"><tspan id="SvgjsTspan1402" dy="20" x="203"><tspan id="SvgjsTspan1403" style="text-decoration:;">端口化</tspan></tspan></text></g></g><g id="SvgjsG1404" transform="translate(381.5,682)"><path id="SvgjsPath1405" d="M 0 0L 137 0L 137 69L 0 69Z" stroke="#323232" stroke-width="2" fill-opacity="1" fill="#ffffff"></path><g id="SvgjsG1406"><text id="SvgjsText1407" font-family="微软雅黑" text-anchor="middle" font-size="16px" width="105" fill="#323232" font-weight="400" align="middle" anchor="middle" family="微软雅黑" size="16px" weight="400" font-style="" y="22.1" transform="rotate(0)"><tspan id="SvgjsTspan1408" dy="20" x="68.5"><tspan id="SvgjsTspan1409" style="text-decoration:;">NLP to BPMN</tspan></tspan></text></g></g><g id="SvgjsG1410" transform="translate(575,682)"><path id="SvgjsPath1411" d="M 0 4Q 0 0 4 0L 200 0Q 204 0 204 4L 204 65Q 204 69 200 69L 4 69Q 0 69 0 65Z" stroke="#323232" stroke-width="2" fill-opacity="1" fill="#ffffff"></path><g id="SvgjsG1412"><text id="SvgjsText1413" font-family="微软雅黑" text-anchor="middle" font-size="16px" width="80" fill="#323232" font-weight="700" align="middle" anchor="middle" family="微软雅黑" size="16px" weight="700" font-style="" y="22.1" transform="rotate(0)"><tspan id="SvgjsTspan1414" dy="20" x="102"><tspan id="SvgjsTspan1415" style="text-decoration:;">微服务映射</tspan></tspan></text></g></g><g id="SvgjsG1416" transform="translate(154,219)"><path id="SvgjsPath1417" d="M 0 0L 160 0L 160 40L 0 40Z" stroke="none" fill="none"></path><g id="SvgjsG1418"><text id="SvgjsText1419" font-family="微软雅黑" text-anchor="middle" font-size="13px" width="52" fill="#ff3333" font-weight="400" align="middle" anchor="middle" family="微软雅黑" size="13px" weight="400" font-style="" y="10.05" transform="rotate(0)"><tspan id="SvgjsTspan1420" dy="16" x="80"><tspan id="SvgjsTspan1421" style="text-decoration:;">bpmn-js</tspan></tspan></text></g></g><g id="SvgjsG1422" transform="translate(154,269)"><path id="SvgjsPath1423" d="M 0 0L 160 0L 160 40L 0 40Z" stroke="none" fill="none"></path><g id="SvgjsG1424"><text id="SvgjsText1425" font-family="微软雅黑" text-anchor="middle" font-size="13px" width="57" fill="#ff3333" font-weight="400" align="middle" anchor="middle" family="微软雅黑" size="13px" weight="400" font-style="" y="10.05" transform="rotate(0)"><tspan id="SvgjsTspan1426" dy="16" x="80"><tspan id="SvgjsTspan1427" style="text-decoration:;">bpmnlint</tspan></tspan></text></g></g><g id="SvgjsG1428" transform="translate(268,410)"><path id="SvgjsPath1429" d="M 0 0L 459 0L 459 34L 0 34Z" stroke="#171717" stroke-width="2" fill-opacity="1" fill="#ffffff"></path><g id="SvgjsG1430"><text id="SvgjsText1431" font-family="微软雅黑" text-anchor="middle" font-size="13px" width="33" fill="#323232" font-weight="400" align="middle" anchor="middle" family="微软雅黑" size="13px" weight="400" font-style="" y="7.05" transform="rotate(0)"><tspan id="SvgjsTspan1432" dy="16" x="229.5"><tspan id="SvgjsTspan1433" style="text-decoration:;">Axios</tspan></tspan></text></g></g><g id="SvgjsG1434"><path id="SvgjsPath1435" d="M160 358L160 426L450 426L450 682" stroke="#00cc00" stroke-width="3" fill="none" marker-start="url(#SvgjsMarker1436)" marker-end="url(#SvgjsMarker1438)"></path></g><g id="SvgjsG1440"><path id="SvgjsPath1441" d="M636.5 363L636.5 434.5L677 434.5L677 682" stroke="#00cc00" stroke-width="3" fill="none" marker-start="url(#SvgjsMarker1442)" marker-end="url(#SvgjsMarker1444)"></path></g><g id="SvgjsG1446" transform="translate(392,718)"><path id="SvgjsPath1447" d="M 0 0L 160 0L 160 40L 0 40Z" stroke="none" fill="none"></path><g id="SvgjsG1448"><text id="SvgjsText1449" font-family="微软雅黑" text-anchor="middle" font-size="13px" width="87" fill="#ff3333" font-weight="400" align="middle" anchor="middle" family="微软雅黑" size="13px" weight="400" font-style="" y="10.05" transform="rotate(0)"><tspan id="SvgjsTspan1450" dy="16" x="80"><tspan id="SvgjsTspan1451" style="text-decoration:;">bpmn-python</tspan></tspan></text></g></g><g id="SvgjsG1452" transform="translate(404,336)"><path id="SvgjsPath1453" d="M 0 0L 160 0L 160 40L 0 40Z" stroke="none" fill="none"></path><g id="SvgjsG1454"><text id="SvgjsText1455" font-family="微软雅黑" text-anchor="middle" font-size="13px" width="106" fill="#ff3333" font-weight="400" align="middle" anchor="middle" family="微软雅黑" size="13px" weight="400" font-style="" y="10.05" transform="rotate(0)"><tspan id="SvgjsTspan1456" dy="16" x="80"><tspan id="SvgjsTspan1457" style="text-decoration:;">token-simulation</tspan></tspan></text></g></g><g id="SvgjsG1458" transform="translate(424,161.5)"><path id="SvgjsPath1459" d="M 0 0L 160 0L 160 40L 0 40Z" stroke="none" fill="none"></path><g id="SvgjsG1460"><text id="SvgjsText1461" font-family="微软雅黑" text-anchor="middle" font-size="13px" width="26" fill="#ff3333" font-weight="400" align="middle" anchor="middle" family="微软雅黑" size="13px" weight="400" font-style="" y="10.05" transform="rotate(0)"><tspan id="SvgjsTspan1462" dy="16" x="80"><tspan id="SvgjsTspan1463" style="text-decoration:;">复用</tspan></tspan></text></g></g><g id="SvgjsG1464" transform="translate(427,205)"><path id="SvgjsPath1465" d="M 0 0L 160 0L 160 40L 0 40Z" stroke="none" fill="none"></path><g id="SvgjsG1466"><text id="SvgjsText1467" font-family="微软雅黑" text-anchor="middle" font-size="13px" width="26" fill="#ff3333" font-weight="400" align="middle" anchor="middle" family="微软雅黑" size="13px" weight="400" font-style="" y="10.05" transform="rotate(0)"><tspan id="SvgjsTspan1468" dy="16" x="80"><tspan id="SvgjsTspan1469" style="text-decoration:;">复用</tspan></tspan></text></g></g><g id="SvgjsG1470" transform="translate(838,279)"><path id="SvgjsPath1471" d="M 0 0L 123 0L 123 43L 0 43Z" stroke="none" fill="none"></path><g id="SvgjsG1472"><text id="SvgjsText1473" font-family="微软雅黑" text-anchor="middle" font-size="13px" width="78" fill="#ff8000" font-weight="400" align="middle" anchor="middle" family="微软雅黑" size="13px" weight="400" font-style="" y="11.55" transform="rotate(0)"><tspan id="SvgjsTspan1474" dy="16" x="61.5"><tspan id="SvgjsTspan1475" style="text-decoration:;">实现页面跳转</tspan></tspan></text></g></g><g id="SvgjsG1476" transform="translate(461,410)"><path id="SvgjsPath1477" d="M 0 0L 160 0L 160 40L 0 40Z" stroke="none" fill="none"></path><g id="SvgjsG1478"><text id="SvgjsText1479" font-family="微软雅黑" text-anchor="middle" font-size="13px" width="39" fill="#ff8000" font-weight="400" align="middle" anchor="middle" family="微软雅黑" size="13px" weight="400" font-style="" y="10.05" transform="rotate(0)"><tspan id="SvgjsTspan1480" dy="16" x="80"><tspan id="SvgjsTspan1481" style="text-decoration:;">类Ajax</tspan></tspan></text></g></g><g id="SvgjsG1482" transform="translate(139,116)"><path id="SvgjsPath1483" d="M 0 0L 160 0L 160 40L 0 40Z" stroke="none" fill="none"></path><g id="SvgjsG1484"><text id="SvgjsText1485" font-family="微软雅黑" text-anchor="middle" font-size="13px" width="39" fill="#ff8000" font-weight="400" align="middle" anchor="middle" family="微软雅黑" size="13px" weight="400" font-style="" y="10.05" transform="rotate(0)"><tspan id="SvgjsTspan1486" dy="16" x="80"><tspan id="SvgjsTspan1487" style="text-decoration:;">编辑器</tspan></tspan></text></g></g><g id="SvgjsG1488" transform="translate(421,116)"><path id="SvgjsPath1489" d="M 0 0L 160 0L 160 40L 0 40Z" stroke="none" fill="none"></path><g id="SvgjsG1490"><text id="SvgjsText1491" font-family="微软雅黑" text-anchor="middle" font-size="13px" width="39" fill="#ff8000" font-weight="400" align="middle" anchor="middle" family="微软雅黑" size="13px" weight="400" font-style="" y="10.05" transform="rotate(0)"><tspan id="SvgjsTspan1492" dy="16" x="80"><tspan id="SvgjsTspan1493" style="text-decoration:;">仿真器</tspan></tspan></text></g></g><g id="SvgjsG1494" transform="translate(819.5,346)"><path id="SvgjsPath1495" d="M 0 0L 160 0L 160 40L 0 40Z" stroke="none" fill="none"></path><g id="SvgjsG1496"><text id="SvgjsText1497" font-family="微软雅黑" text-anchor="middle" font-size="13px" width="78" fill="#ff8000" font-weight="400" align="middle" anchor="middle" family="微软雅黑" size="13px" weight="400" font-style="" y="10.05" transform="rotate(0)"><tspan id="SvgjsTspan1498" dy="16" x="80"><tspan id="SvgjsTspan1499" style="text-decoration:;">页面状态保存</tspan></tspan></text></g></g><g id="SvgjsG1500" transform="translate(592,138)"><path id="SvgjsPath1501" d="M 0 0L 160 0L 160 40L 0 40Z" stroke="none" fill="none"></path><g id="SvgjsG1502"><text id="SvgjsText1503" font-family="微软雅黑" text-anchor="middle" font-size="13px" width="52" fill="#ff8000" font-weight="400" align="middle" anchor="middle" family="微软雅黑" size="13px" weight="400" font-style="" y="10.05" transform="rotate(0)"><tspan id="SvgjsTspan1504" dy="16" x="80"><tspan id="SvgjsTspan1505" style="text-decoration:;">服务映射</tspan></tspan></text></g></g><g id="SvgjsG1506" transform="translate(104,547)"><path id="SvgjsPath1507" d="M 0 0L 160 0L 160 40L 0 40Z" stroke="none" fill="none"></path><g id="SvgjsG1508"><text id="SvgjsText1509" font-family="微软雅黑" text-anchor="middle" font-size="13px" width="120" fill="#ff8000" font-weight="400" align="middle" anchor="middle" family="微软雅黑" size="13px" weight="400" font-style="" y="10.05" transform="rotate(0)"><tspan id="SvgjsTspan1510" dy="16" x="80"><tspan id="SvgjsTspan1511" style="text-decoration:;">Web和反向代理服务</tspan></tspan></text></g></g></svg>